<svg width="20" height="18" viewBox="0 0 20 18" fill="none" xmlns="http://www.w3.org/2000/svg">
<path d="M19 1H1M19 17H1M7 6.25H1M7 11.75H1M12.6 13H17.4C17.9601 13 18.2401 13 18.454 12.891C18.6422 12.7951 18.7951 12.6422 18.891 12.454C19 12.2401 19 11.9601 19 11.4V6.6C19 6.03995 19 5.75992 18.891 5.54601C18.7951 5.35785 18.6422 5.20487 18.454 5.10899C18.2401 5 17.9601 5 17.4 5H12.6C12.0399 5 11.7599 5 11.546 5.10899C11.3578 5.20487 11.2049 5.35785 11.109 5.54601C11 5.75992 11 6.03995 11 6.6V11.4C11 11.9601 11 12.2401 11.109 12.454C11.2049 12.6422 11.3578 12.7951 11.546 12.891C11.7599 13 12.0399 13 12.6 13Z" stroke="black" stroke-width="2" stroke-linecap="round" stroke-linejoin="round"/>
</svg>
