<svg width="20" height="16" viewBox="0 0 20 16" fill="none" xmlns="http://www.w3.org/2000/svg">
<path d="M9.99996 14.6666H4.33329C3.39987 14.6666 2.93316 14.6666 2.57664 14.4849C2.26304 14.3251 2.00807 14.0702 1.84828 13.7566C1.66663 13.4 1.66663 12.9333 1.66663 11.9999V3.99992C1.66663 3.0665 1.66663 2.59979 1.84828 2.24327C2.00807 1.92966 2.26304 1.6747 2.57664 1.51491C2.93316 1.33325 3.39987 1.33325 4.33329 1.33325H4.66663C6.53347 1.33325 7.46689 1.33325 8.17993 1.69656C8.80713 2.01614 9.31707 2.52608 9.63665 3.15328C9.99996 3.86632 9.99996 4.79974 9.99996 6.66659M9.99996 14.6666V6.66659M9.99996 14.6666H15.6666C16.6 14.6666 17.0668 14.6666 17.4233 14.4849C17.7369 14.3251 17.9918 14.0702 18.1516 13.7566C18.3333 13.4 18.3333 12.9333 18.3333 11.9999V3.99992C18.3333 3.0665 18.3333 2.59979 18.1516 2.24327C17.9918 1.92966 17.7369 1.6747 17.4233 1.51491C17.0668 1.33325 16.6 1.33325 15.6666 1.33325H15.3333C13.4665 1.33325 12.533 1.33325 11.82 1.69656C11.1928 2.01614 10.6828 2.52608 10.3633 3.15328C9.99996 3.86632 9.99996 4.79974 9.99996 6.66659" stroke="black" stroke-width="1.66667" stroke-linecap="round" stroke-linejoin="round"/>
</svg>
