<svg width="72" height="72" viewBox="0 0 72 72" fill="none" xmlns="http://www.w3.org/2000/svg">
<circle cx="36" cy="36" r="35.625" fill="#D6D6D6" stroke="#212529" stroke-width="0.75"/>
<path d="M15.9489 58.3152C17.7739 54.0156 22.0348 51 27 51H45C49.9652 51 54.2261 54.0156 56.0511 58.3152M48 28.5C48 35.1274 42.6274 40.5 36 40.5C29.3726 40.5 24 35.1274 24 28.5C24 21.8726 29.3726 16.5 36 16.5C42.6274 16.5 48 21.8726 48 28.5ZM66 36C66 52.5685 52.5685 66 36 66C19.4315 66 6 52.5685 6 36C6 19.4315 19.4315 6 36 6C52.5685 6 66 19.4315 66 36Z" stroke="#212529" stroke-width="1.5" stroke-linecap="round" stroke-linejoin="round"/>
</svg>
